<?xml version="1.0" encoding="utf-8"?>
<!-- Generator: Adobe Illustrator 25.0.1, SVG Export Plug-In . SVG Version: 6.00 Build 0)  -->
<svg version="1.1" id="Layer_1" xmlns="http://www.w3.org/2000/svg" xmlns:xlink="http://www.w3.org/1999/xlink" x="0px" y="0px"
	 viewBox="0 0 1200 340" style="enable-background:new 0 0 1200 340;" xml:space="preserve">
<g>
	<g>
		<g>
			<path d="M1054.44,211.05c-7.61-2.35-32.87-13.35-11.38-31.13c29.22-24.18,34.92-25.44,1.55-52.26c-5.9-4.74-7.01-9.01-23.03,14.3
				c-16.16,23.51-66.3,51.85-75.93,55.93c-9.63,4.07-25.37,4.26-23.89-9.82s8.52-11.87,22.04-8.06
				c13.52,3.8,43.34-10.83,39.45-39.16c-3.89-28.33-76.01,5.56-97.31,54.27c0,0-40.1,22.94-12.88-15.11
				c27.22-38.05,43.76-58.91,51.54-59.83c7.78-0.93,97.15-11.88,143.85-11.2c46.71,0.68-109.9-6.71-127.18-5.27
				c-22.63,1.88,9.93-11.68,14.09-19.24c2.58-4.7-1.62-15.34-17.53-4.17c-15.91,11.17-34.12,22.47-34.12,22.47s-37.19-1.2-92.7-0.04
				c-6.06,0.13,0.66-4.83,8.33-14.77c5.93-7.7-3.25-25.8-27.16,3.64c-2.83,3.49-8.16,9.59-20.84,10.27
				c-10.32,0.55-133.94,1.95-133.94,1.95s46.47,8.66,128.56,17.38c0,0-53.78,76.66-71.21,77.34c0,0-21.96-0.88-5.21-23.3
				c16.76-22.42,31.51-25.13,14.36-38.06c-17.37-13.09-26.12-14-26.12-14s-8.13,29.42-26.56,20.6c-0.01-0.9-26.09-22.8-66.86,2.12
				c-6.68,4.09-12.18,8.25-16.79,12.3c0.33-1.92,0.57-3.78,0.61-5.52c0.44-22.56-36.65-17.21-36.65-17.21s-4.36-17.28-15.4-12.92
				c-4.94,1.95-42.71,34.03-83.32,69.7c1.47-3.11,2.76-6.41,3.68-10.1c8.71-34.74-24.46-39.22-62.13-39.37
				c-18.55-0.08-91.66-8.21-81.61-21.61c10.05-13.4,78.6-36.04,181.92-30.73c41.39,2.13,14.03,8.38,6.77,10.74
				c-31.94,10.37-111.3,16.82-96.47,18.98c14.84,2.15,56.02,3.02,74.43,2.1c29.65-1.49,64.34-9.25,72.11-12.41
				c15.81-6.45,23.19-19.9,16.99-26.71c-10.17-11.17-48.67-16.23-64.59-18.04c-34.6-3.93-87.55-2.43-125.05,3.06
				c-50.78,7.44-148.75,35.52-139.25,70.65c9.78,36.17,130.21,34.93,157.61,33.22c20.67-1.29,14.95,7.49,10.06,9.92
				C302.02,224.19,2.5,214.99,2.5,214.99c88.19,32.01,298.02,27.12,339.04,19.37c21.49-4.06,42.81-7.27,59.98-14.43
				c-39.25,35.03-73.88,67-75.79,71.07c-4.36,9.3-4.63,29.94-1.45,39.23c1.01,2.97,7.02,11.14,9.01,8.72
				c19.49-23.64,98.03-109.57,121-130.81c16.63-15.38,13.94-8.76,13.94-8.76c-14.34,42.62,25.1,32.14,25.1,32.14
				c22.15-7.98,39.43-20.29,51.81-33.45c0.44,15.21,7.41,41.35,54.33,18.57c24.21-11.75,47.81-27.53,69.22-59.44
				c1.28-1.92,20.84-6.89,10.92,4.56c-10.71,12.36-48.28,31.31-30.38,54.97c17.89,23.66,37.81-3.17,37.81-3.17l13.43,0.44
				c0,0-0.74,16.48,19.08,13.7c18.71-2.62,28.46-10.14,32.25-16.94c1.95,4.9,4.62,8.49,8.16,11.76c10.38,9.58,53.64,7.57,66.2,4.36
				c3.41-0.87,6.07-3.13,8.14-6.35c8.02,11.32,41.04,1.77,45.41-11.13c0,0,6.11-4.07,12.41,7.04c6.3,11.11,39.09,20.79,67.27-3.56
				c28.63-24.74,65.26-53.24,65.26-53.24s12.16-3.1,6.05,8.01c-6.11,11.11-23.17,23.48-29.15,33.97c-5.06,8.87-11.93,30,27.84,31.73
				c36.55,1.59,135.36-15.39,164.91-22.07C1219.37,205.62,1091.4,222.48,1054.44,211.05z M966.3,149.94
				c17.11,0.72-16.85,29.68-21.03,17.06C945.27,167,939.76,148.83,966.3,149.94z M531.42,164.6c-1.94,8.24-25.79,30.03-34.22,32.47
				c-8.43,2.45-10.65-5.44-9.89-10.13c1.87-11.58,22.11-31.65,33.17-33.52C528.05,152.15,533.26,156.78,531.42,164.6z M587.76,196
				c-11.84-12.24,6.48-46.18,9.86-21.95c1.42,10.15,13.29,6.91,16.2,12.35C617.52,193.28,596.15,204.68,587.76,196z M611.46,168.1
				c-4.14-7.05,2.46-10.19,6.79-11.98c9.29-3.84,19.52,5.29,19.01,9.04C636.17,173.14,615.45,174.91,611.46,168.1z M800.09,212.8
				c-3.16,0.11-16.64,0.97-19.37,0.01c-5.07-1.77-3.5-10.34-2.11-12.07c2.83-3.51,7.6-3.21,15.67-3.21c11.52,0,16.69-0.64,17.8,1.86
				C813.27,202.07,811.81,212.38,800.09,212.8z M809.96,181.79c-4.55-0.84-22.27-0.33-22.27-0.33s16.15-22.44,24.75-18.87
				C819.54,165.54,821.87,183.99,809.96,181.79z M840.65,184.63c-0.24-18.17-2.05-26.58,2.02-38.44c4.32-12.6-0.15-22.72-5.62-23.68
				c-2.15-0.38-15.95-0.15-16.47,0.08c-5.91,2.6-9.96,6.21-13.64,10.75c-18.46,22.76-35.15,49.31-35.15,49.31
				c-16.65,1.28-21.68,5.72-22.91,10.33c-0.01,0.01-0.03,0.01-0.03,0.02c-8.19,21.39-12.69,3.62-12.48-3.07
				c0.22-6.69,33.21-45.09,48.53-57.75c6.41-5.3,10.44-9.59,28.9-9.57c5.21,0,32.3-0.16,41.45-0.17c16.22-0.02,23.44,0.26,26.2,0.49
				c13.09,1.11,0.84,7.42-14.25,25.41C856.35,161.3,849.37,184.23,840.65,184.63z"/>
		</g>
	</g>
	<path d="M414.32,47.27c3.91-0.13,7.97-0.21,12.1-0.27l7.18-36.31h12.35l1.96-10.09h-36.75L409.2,10.7h12.35L414.32,47.27z"/>
	<path d="M462.81,47.6l3.33-17.02h15.14l-3.65,17.98c4.09,0.34,8.18,0.74,12.24,1.2l9.83-49.16h-12.49l-3.75,19.04h-15.14l3.9-19.04
		h-12.49l-9.3,46.53C454.53,47.24,458.66,47.39,462.81,47.6z"/>
	<g>
		<g>
			<path d="M540.8,61.13l2.36-13.02c0,0-8.87-1.85-11.94-2.33c-2.41-0.38-9.99-1.1-9.99-1.1l1.86-8.9h18.6l2.39-12.34h-18.6
				l2.03-10.49h21.91l2.39-12.34h-36.46l-10.25,51.24C517.7,53.87,527.91,55.92,540.8,61.13z"/>
		</g>
	</g>
	<path d="M583.85,0.61h18.42L590.3,60h32.15l-7.98,15.42h-45.58L583.85,0.61z"/>
	<path d="M664.4,0.61h22.1l7.14,74.81h-19.34l-0.46-17.03h-20.6l-7.71,17.03h-20.25L664.4,0.61z M659.56,44.58h13.81l-0.23-8.75
		c-0.23-7.13-0.46-13.81-0.46-21.41h-0.46c-2.99,7.37-5.52,14.28-8.74,21.41L659.56,44.58z"/>
	<path d="M699.94,61.66l10.43-10c4,5.11,10.44,8.44,16.87,8.44c4.66,0,7.99-2,7.99-5.55c0-3.78-2.89-5.33-8.21-8.66l-5.77-3.55
		c-6.88-4.22-11.1-9.54-11.1-18.43c0-12.88,11.99-23.31,25.98-23.31c8.43,0,16.65,4.22,22.2,11.32l-9.99,10.21
		c-3.78-3.77-7.77-6.22-12.43-6.22c-5.11,0-7.54,2.67-7.54,6c0,3.33,2.89,4.66,8.88,8.43l6.44,4c7.1,4.44,9.99,8.66,9.99,17.09
		c0,13.1-10.88,23.98-28.2,23.98C716.81,75.43,707.04,71.43,699.94,61.66z"/>
	<path d="M784.44,15.77H765.9l2.94-15.15h55.19l-2.94,15.15h-18.55l-11.05,59.66h-18.07L784.44,15.77z"/>
</g>
</svg>
